<svg width="165" height="33" viewBox="0 0 165 33" fill="none" xmlns="http://www.w3.org/2000/svg">
<g filter="url(#filter0_d_5_183)">
<path d="M42.0344 22.5V9.40909H44.9833V11.6335H45.1367C45.4094 10.8835 45.8612 10.2983 46.4918 9.87784C47.1225 9.4517 47.8754 9.23864 48.7504 9.23864C49.6367 9.23864 50.3839 9.45455 50.9918 9.88636C51.6055 10.3125 52.0373 10.8949 52.2873 11.6335H52.4237C52.7134 10.9062 53.2021 10.3267 53.8896 9.89489C54.5827 9.45739 55.4038 9.23864 56.3526 9.23864C57.5572 9.23864 58.5401 9.61932 59.3015 10.3807C60.0629 11.142 60.4435 12.2528 60.4435 13.7131V22.5H57.3498V14.1903C57.3498 13.3778 57.1339 12.7841 56.7021 12.4091C56.2702 12.0284 55.7418 11.8381 55.1168 11.8381C54.3725 11.8381 53.7901 12.071 53.3697 12.5369C52.9549 12.9972 52.7475 13.5966 52.7475 14.3352V22.5H49.7219V14.0625C49.7219 13.3864 49.5174 12.8466 49.1083 12.4432C48.7049 12.0398 48.1765 11.8381 47.5231 11.8381C47.0799 11.8381 46.6765 11.9517 46.3129 12.179C45.9492 12.4006 45.6594 12.7159 45.4435 13.125C45.2276 13.5284 45.1197 14 45.1197 14.5398V22.5H42.0344ZM69.369 22.7557C68.0565 22.7557 66.9229 22.483 65.9684 21.9375C65.0195 21.3864 64.2894 20.608 63.7781 19.6023C63.2667 18.5909 63.011 17.4006 63.011 16.0312C63.011 14.6847 63.2667 13.5028 63.7781 12.4858C64.2951 11.4631 65.0167 10.6676 65.9428 10.0994C66.869 9.52557 67.957 9.23864 69.207 9.23864C70.0138 9.23864 70.7752 9.36932 71.4911 9.63068C72.2127 9.88636 72.8491 10.2841 73.4002 10.8239C73.957 11.3636 74.3945 12.0511 74.7127 12.8864C75.0309 13.7159 75.19 14.7045 75.19 15.8523V16.7983H64.4599V14.7188H72.2326C72.2269 14.1278 72.0991 13.6023 71.8491 13.142C71.5991 12.6761 71.2496 12.3097 70.8008 12.0426C70.3576 11.7756 69.8406 11.642 69.2496 11.642C68.619 11.642 68.065 11.7955 67.5877 12.1023C67.1104 12.4034 66.7383 12.8011 66.4712 13.2955C66.2099 13.7841 66.0763 14.321 66.0707 14.9062V16.7216C66.0707 17.483 66.2099 18.1364 66.4883 18.6818C66.7667 19.2216 67.1559 19.6364 67.6559 19.9261C68.1559 20.2102 68.7411 20.3523 69.4116 20.3523C69.8604 20.3523 70.2667 20.2898 70.6303 20.1648C70.994 20.0341 71.3093 19.8438 71.5763 19.5938C71.8434 19.3438 72.0451 19.0341 72.1815 18.6648L75.0621 18.9886C74.8803 19.75 74.5337 20.4148 74.0224 20.983C73.5167 21.5455 72.869 21.983 72.0792 22.2955C71.2894 22.6023 70.386 22.7557 69.369 22.7557ZM82.658 22.7301C81.6296 22.7301 80.7092 22.4659 79.8967 21.9375C79.0842 21.4091 78.4421 20.642 77.9705 19.6364C77.4989 18.6307 77.2631 17.4091 77.2631 15.9716C77.2631 14.517 77.5018 13.2898 77.979 12.2898C78.462 11.2841 79.1126 10.5256 79.9308 10.0142C80.7489 9.49716 81.6609 9.23864 82.6665 9.23864C83.4336 9.23864 84.0643 9.36932 84.5586 9.63068C85.0529 9.88636 85.445 10.196 85.7347 10.5597C86.0245 10.9176 86.2489 11.2557 86.408 11.5739H86.5359V5.04545H89.6296V22.5H86.5955V20.4375H86.408C86.2489 20.7557 86.0188 21.0937 85.7177 21.4517C85.4165 21.804 85.0188 22.1051 84.5245 22.3551C84.0302 22.6051 83.408 22.7301 82.658 22.7301ZM83.5188 20.1989C84.1722 20.1989 84.729 20.0227 85.1893 19.6705C85.6495 19.3125 85.9989 18.8153 86.2376 18.179C86.4762 17.5426 86.5955 16.8011 86.5955 15.9545C86.5955 15.108 86.4762 14.3722 86.2376 13.7472C86.0046 13.1222 85.658 12.6364 85.1978 12.2898C84.7433 11.9432 84.1836 11.7699 83.5188 11.7699C82.8313 11.7699 82.2575 11.9489 81.7972 12.3068C81.337 12.6648 80.9904 13.1591 80.7575 13.7898C80.5245 14.4205 80.408 15.142 80.408 15.9545C80.408 16.7727 80.5245 17.5028 80.7575 18.1449C80.9961 18.7812 81.3455 19.2841 81.8058 19.6534C82.2717 20.017 82.8427 20.1989 83.5188 20.1989ZM107.994 10.9347H104.806C104.716 10.4119 104.548 9.94886 104.304 9.54545C104.059 9.13636 103.755 8.78977 103.392 8.50568C103.028 8.22159 102.613 8.00852 102.147 7.86648C101.687 7.71875 101.19 7.64489 100.656 7.64489C99.707 7.64489 98.8661 7.88352 98.1332 8.36079C97.4002 8.83239 96.8263 9.52557 96.4116 10.4403C95.9968 11.3494 95.7894 12.4602 95.7894 13.7727C95.7894 15.108 95.9968 16.233 96.4116 17.1477C96.832 18.0568 97.4059 18.7443 98.1332 19.2102C98.8661 19.6705 99.7042 19.9006 100.647 19.9006C101.17 19.9006 101.659 19.8324 102.113 19.696C102.574 19.554 102.985 19.3466 103.349 19.0739C103.718 18.8011 104.028 18.4659 104.278 18.0682C104.534 17.6705 104.71 17.2159 104.806 16.7045L107.994 16.7216C107.875 17.5511 107.616 18.3295 107.218 19.0568C106.826 19.7841 106.312 20.4261 105.676 20.983C105.039 21.5341 104.295 21.9659 103.443 22.2784C102.591 22.5852 101.645 22.7386 100.605 22.7386C99.0707 22.7386 97.7013 22.3835 96.4968 21.6733C95.2923 20.9631 94.3434 19.9375 93.6502 18.5966C92.957 17.2557 92.6104 15.6477 92.6104 13.7727C92.6104 11.892 92.9599 10.2841 93.6587 8.94886C94.3576 7.60795 95.3093 6.58239 96.5138 5.87216C97.7184 5.16193 99.082 4.80682 100.605 4.80682C101.576 4.80682 102.48 4.94318 103.315 5.21591C104.15 5.48864 104.895 5.8892 105.548 6.41761C106.201 6.94034 106.738 7.58239 107.159 8.34375C107.585 9.09943 107.863 9.96307 107.994 10.9347ZM113.838 14.8295V22.5H110.753V5.04545H113.77V11.6335H113.924C114.23 10.8949 114.705 10.3125 115.347 9.88636C115.995 9.45455 116.819 9.23864 117.819 9.23864C118.728 9.23864 119.52 9.42898 120.196 9.80966C120.873 10.1903 121.395 10.7472 121.765 11.4801C122.14 12.2131 122.327 13.108 122.327 14.1648V22.5H119.242V14.642C119.242 13.7614 119.015 13.0767 118.56 12.5881C118.111 12.0937 117.48 11.8466 116.668 11.8466C116.123 11.8466 115.634 11.9659 115.202 12.2045C114.776 12.4375 114.441 12.7756 114.196 13.2188C113.958 13.6619 113.838 14.1989 113.838 14.8295ZM129.239 22.7642C128.409 22.7642 127.662 22.6165 126.998 22.321C126.338 22.0199 125.816 21.5767 125.429 20.9915C125.049 20.4062 124.858 19.6847 124.858 18.8267C124.858 18.0881 124.995 17.4773 125.267 16.9943C125.54 16.5114 125.912 16.125 126.384 15.8352C126.855 15.5455 127.387 15.3267 127.978 15.179C128.574 15.0256 129.191 14.9148 129.827 14.8466C130.594 14.767 131.216 14.696 131.694 14.6335C132.171 14.5653 132.517 14.4631 132.733 14.3267C132.955 14.1847 133.066 13.9659 133.066 13.6705V13.6193C133.066 12.9773 132.875 12.4801 132.495 12.1278C132.114 11.7756 131.566 11.5994 130.85 11.5994C130.094 11.5994 129.495 11.7642 129.051 12.0938C128.614 12.4233 128.319 12.8125 128.165 13.2614L125.284 12.8523C125.512 12.0568 125.887 11.392 126.409 10.858C126.932 10.3182 127.571 9.91477 128.327 9.64773C129.083 9.375 129.918 9.23864 130.833 9.23864C131.463 9.23864 132.091 9.3125 132.716 9.46023C133.341 9.60795 133.912 9.85227 134.429 10.1932C134.946 10.5284 135.361 10.9858 135.674 11.5653C135.992 12.1449 136.151 12.8693 136.151 13.7386V22.5H133.185V20.7017H133.083C132.895 21.0653 132.631 21.4062 132.29 21.7244C131.955 22.0369 131.532 22.2898 131.02 22.483C130.515 22.6705 129.921 22.7642 129.239 22.7642ZM130.04 20.4972C130.659 20.4972 131.196 20.375 131.651 20.1307C132.105 19.8807 132.455 19.5511 132.699 19.142C132.949 18.733 133.074 18.2869 133.074 17.804V16.2614C132.978 16.3409 132.813 16.4148 132.58 16.483C132.353 16.5511 132.097 16.6108 131.813 16.6619C131.529 16.7131 131.248 16.7585 130.969 16.7983C130.691 16.8381 130.449 16.8722 130.245 16.9006C129.784 16.9631 129.373 17.0653 129.009 17.2074C128.645 17.3494 128.358 17.5483 128.148 17.804C127.938 18.054 127.833 18.3778 127.833 18.7756C127.833 19.3438 128.04 19.7727 128.455 20.0625C128.87 20.3523 129.398 20.4972 130.04 20.4972ZM139.253 22.5V9.40909H142.338V22.5H139.253ZM140.804 7.55114C140.316 7.55114 139.895 7.3892 139.543 7.06534C139.191 6.73579 139.015 6.34091 139.015 5.88068C139.015 5.41477 139.191 5.01989 139.543 4.69602C139.895 4.36648 140.316 4.2017 140.804 4.2017C141.299 4.2017 141.719 4.36648 142.066 4.69602C142.418 5.01989 142.594 5.41477 142.594 5.88068C142.594 6.34091 142.418 6.73579 142.066 7.06534C141.719 7.3892 141.299 7.55114 140.804 7.55114ZM148.596 14.8295V22.5H145.511V9.40909H148.46V11.6335H148.613C148.914 10.9006 149.395 10.3182 150.054 9.88636C150.718 9.45455 151.539 9.23864 152.517 9.23864C153.42 9.23864 154.207 9.43182 154.877 9.81818C155.554 10.2045 156.076 10.7642 156.446 11.4972C156.821 12.2301 157.005 13.1193 157 14.1648V22.5H153.914V14.642C153.914 13.767 153.687 13.0824 153.233 12.5881C152.784 12.0937 152.162 11.8466 151.366 11.8466C150.826 11.8466 150.346 11.9659 149.926 12.2045C149.511 12.4375 149.184 12.7756 148.946 13.2188C148.713 13.6619 148.596 14.1989 148.596 14.8295Z" fill="#1F6E68"/>
</g>
<path d="M16.65 26H9C6.45 26 4.3125 24.85 2.5875 22.55C0.8625 20.25 0 17.4 0 14C0 10.6 0.8625 7.75 2.5875 5.45C4.3125 3.15 6.45 2 9 2H16.65V5.6H9C7.2 5.6 5.7 6.4 4.5 8C3.3 9.6 2.7 11.6 2.7 14C2.7 16.4 3.3 18.4 4.5 20C5.7 21.6 7.2 22.4 9 22.4H16.65V26ZM11.025 15.8V12.2H24.975V15.8H11.025ZM19.35 26V22.4H27C28.8 22.4 30.3 21.6 31.5 20C32.7 18.4 33.3 16.4 33.3 14C33.3 11.6 32.7 9.6 31.5 8C30.3 6.4 28.8 5.6 27 5.6H19.35V2H27C29.55 2 31.6875 3.15 33.4125 5.45C35.1375 7.75 36 10.6 36 14C36 17.4 35.1375 20.25 33.4125 22.55C31.6875 24.85 29.55 26 27 26H19.35Z" fill="#DA4C4C"/>
<path d="M18 7.00021V20.7085" stroke="#DA4C4C" stroke-width="3.5"/>
<defs>
<filter id="filter0_d_5_183" x="35.0344" y="0.201704" width="128.974" height="32.5625" filterUnits="userSpaceOnUse" color-interpolation-filters="sRGB">
<feFlood flood-opacity="0" result="BackgroundImageFix"/>
<feColorMatrix in="SourceAlpha" type="matrix" values="0 0 0 0 0 0 0 0 0 0 0 0 0 0 0 0 0 0 127 0" result="hardAlpha"/>
<feOffset dy="3"/>
<feGaussianBlur stdDeviation="3.5"/>
<feComposite in2="hardAlpha" operator="out"/>
<feColorMatrix type="matrix" values="0 0 0 0 0 0 0 0 0 0 0 0 0 0 0 0 0 0 0.15 0"/>
<feBlend mode="normal" in2="BackgroundImageFix" result="effect1_dropShadow_5_183"/>
<feBlend mode="normal" in="SourceGraphic" in2="effect1_dropShadow_5_183" result="shape"/>
</filter>
</defs>
</svg>
