<svg width="86" height="58" viewBox="0 0 86 58" fill="none" xmlns="http://www.w3.org/2000/svg">
<path d="M39.775 57.3333H21.5C15.4083 57.3333 10.3021 54.5861 6.18125 49.0917C2.06042 43.5972 0 36.7889 0 28.6667C0 20.5444 2.06042 13.7361 6.18125 8.24167C10.3021 2.74722 15.4083 0 21.5 0H39.775V8.6H21.5C17.2 8.6 13.6167 10.5111 10.75 14.3333C7.88333 18.1556 6.45 22.9333 6.45 28.6667C6.45 34.4 7.88333 39.1778 10.75 43C13.6167 46.8222 17.2 48.7333 21.5 48.7333H39.775V57.3333ZM26.3375 32.9667V24.3667H59.6625V32.9667H26.3375ZM46.225 57.3333V48.7333H64.5C68.8 48.7333 72.3833 46.8222 75.25 43C78.1167 39.1778 79.55 34.4 79.55 28.6667C79.55 22.9333 78.1167 18.1556 75.25 14.3333C72.3833 10.5111 68.8 8.6 64.5 8.6H46.225V0H64.5C70.5917 0 75.6979 2.74722 79.8187 8.24167C83.9396 13.7361 86 20.5444 86 28.6667C86 36.7889 83.9396 43.5972 79.8187 49.0917C75.6979 54.5861 70.5917 57.3333 64.5 57.3333H46.225Z" fill="#DA4C4C"/>
<path d="M43 11.945V44.6926" stroke="#DA4C4C" stroke-width="8.36111"/>
</svg>
